<mxfile host="app.diagrams.net" modified="2021-05-27T17:48:08.122Z" agent="5.0 (Windows NT 10.0; Win64; x64) AppleWebKit/537.36 (KHTML, like Gecko) Chrome/91.0.4472.77 Safari/537.36" etag="J_-1KVePWBqeGhwixFxR" version="14.7.2" type="github" pages="3">
  <diagram id="1_gsGeRpVDqEAwgoBU6U" name="플로우">
    <mxGraphModel dx="1422" dy="794" grid="1" gridSize="10" guides="1" tooltips="1" connect="1" arrows="1" fold="1" page="1" pageScale="1" pageWidth="827" pageHeight="1169" math="0" shadow="0">
      <root>
        <mxCell id="HeQPxUuO_kXtwu4ibuIX-0" />
        <mxCell id="HeQPxUuO_kXtwu4ibuIX-1" parent="HeQPxUuO_kXtwu4ibuIX-0" />
        <mxCell id="Oek0VYaZC271vL4Q_7UV-1" value="&lt;h1&gt;&lt;font style=&quot;font-size: 30px&quot;&gt;요기요 toyProject 전체적인구조&lt;/font&gt;&lt;/h1&gt;&lt;p&gt;&lt;span style=&quot;font-size: 17px&quot;&gt;요기요 toyProjct의 큰구조는 사용자,사업주,시스템으로 나눌 수 있으며,이들간의 상호작용으로 시스템이 운용된다.&amp;nbsp;&lt;/span&gt;&lt;/p&gt;" style="text;html=1;strokeColor=none;fillColor=none;spacing=5;spacingTop=-20;whiteSpace=wrap;overflow=hidden;rounded=0;fontStyle=1" parent="HeQPxUuO_kXtwu4ibuIX-1" vertex="1">
          <mxGeometry x="30" y="30" width="720" height="120" as="geometry" />
        </mxCell>
        <mxCell id="Oek0VYaZC271vL4Q_7UV-2" value="&lt;font style=&quot;font-size: 24px&quot;&gt;사용자&lt;/font&gt;" style="rounded=0;whiteSpace=wrap;html=1;fillColor=#dae8fc;strokeColor=#6c8ebf;fontStyle=1" parent="HeQPxUuO_kXtwu4ibuIX-1" vertex="1">
          <mxGeometry x="40" y="160" width="160" height="80" as="geometry" />
        </mxCell>
        <mxCell id="Oek0VYaZC271vL4Q_7UV-3" value="&lt;font style=&quot;font-size: 25px&quot;&gt;시스템&lt;/font&gt;" style="rounded=0;whiteSpace=wrap;html=1;fillColor=#f5f5f5;strokeColor=#666666;fontColor=#333333;fontStyle=1" parent="HeQPxUuO_kXtwu4ibuIX-1" vertex="1">
          <mxGeometry x="320" y="160" width="160" height="80" as="geometry" />
        </mxCell>
        <mxCell id="Oek0VYaZC271vL4Q_7UV-4" value="&lt;font style=&quot;font-size: 25px&quot;&gt;사업자&lt;/font&gt;" style="rounded=0;whiteSpace=wrap;html=1;fillColor=#f8cecc;strokeColor=#b85450;fontStyle=1" parent="HeQPxUuO_kXtwu4ibuIX-1" vertex="1">
          <mxGeometry x="600" y="160" width="160" height="80" as="geometry" />
        </mxCell>
        <mxCell id="Oek0VYaZC271vL4Q_7UV-5" value="" style="shape=flexArrow;endArrow=classic;startArrow=classic;html=1;fontStyle=1" parent="HeQPxUuO_kXtwu4ibuIX-1" edge="1">
          <mxGeometry width="50" height="50" relative="1" as="geometry">
            <mxPoint x="200" y="200" as="sourcePoint" />
            <mxPoint x="320" y="200" as="targetPoint" />
          </mxGeometry>
        </mxCell>
        <mxCell id="Oek0VYaZC271vL4Q_7UV-6" value="" style="shape=flexArrow;endArrow=classic;startArrow=classic;html=1;entryX=0;entryY=0.5;entryDx=0;entryDy=0;exitX=1;exitY=0.5;exitDx=0;exitDy=0;fontStyle=1" parent="HeQPxUuO_kXtwu4ibuIX-1" source="Oek0VYaZC271vL4Q_7UV-3" target="Oek0VYaZC271vL4Q_7UV-4" edge="1">
          <mxGeometry width="50" height="50" relative="1" as="geometry">
            <mxPoint x="520" y="200" as="sourcePoint" />
            <mxPoint x="550" y="199.5" as="targetPoint" />
          </mxGeometry>
        </mxCell>
        <mxCell id="a0R3ADboXIh8943rxJhX-0" value="&lt;font style=&quot;font-size: 20px&quot;&gt;사용자 유저 플로우&lt;/font&gt;" style="text;html=1;strokeColor=none;fillColor=none;align=center;verticalAlign=middle;whiteSpace=wrap;rounded=0;fontStyle=1" parent="HeQPxUuO_kXtwu4ibuIX-1" vertex="1">
          <mxGeometry x="40" y="280" width="240" height="40" as="geometry" />
        </mxCell>
        <mxCell id="a0R3ADboXIh8943rxJhX-6" style="edgeStyle=orthogonalEdgeStyle;rounded=0;orthogonalLoop=1;jettySize=auto;html=1;entryX=0.5;entryY=0;entryDx=0;entryDy=0;fontStyle=1" parent="HeQPxUuO_kXtwu4ibuIX-1" source="a0R3ADboXIh8943rxJhX-2" target="a0R3ADboXIh8943rxJhX-4" edge="1">
          <mxGeometry relative="1" as="geometry" />
        </mxCell>
        <mxCell id="a0R3ADboXIh8943rxJhX-2" value="&lt;font style=&quot;font-size: 20px&quot;&gt;사업장/메뉴정보 조회&lt;/font&gt;" style="rounded=1;whiteSpace=wrap;html=1;absoluteArcSize=1;arcSize=14;strokeWidth=2;fontStyle=1" parent="HeQPxUuO_kXtwu4ibuIX-1" vertex="1">
          <mxGeometry x="40" y="420" width="240" height="40" as="geometry" />
        </mxCell>
        <mxCell id="a0R3ADboXIh8943rxJhX-74" value="" style="edgeStyle=orthogonalEdgeStyle;rounded=0;orthogonalLoop=1;jettySize=auto;html=1;startArrow=oval;startFill=0;fontStyle=1" parent="HeQPxUuO_kXtwu4ibuIX-1" source="a0R3ADboXIh8943rxJhX-3" edge="1">
          <mxGeometry relative="1" as="geometry">
            <mxPoint x="155" y="420" as="targetPoint" />
          </mxGeometry>
        </mxCell>
        <mxCell id="a0R3ADboXIh8943rxJhX-3" value="&lt;span style=&quot;font-size: 20px&quot;&gt;시작&lt;/span&gt;" style="strokeWidth=2;html=1;shape=mxgraph.flowchart.terminator;whiteSpace=wrap;fontStyle=1" parent="HeQPxUuO_kXtwu4ibuIX-1" vertex="1">
          <mxGeometry x="110" y="340" width="90" height="40" as="geometry" />
        </mxCell>
        <mxCell id="a0R3ADboXIh8943rxJhX-7" style="edgeStyle=orthogonalEdgeStyle;rounded=0;orthogonalLoop=1;jettySize=auto;html=1;fontStyle=1" parent="HeQPxUuO_kXtwu4ibuIX-1" source="a0R3ADboXIh8943rxJhX-4" target="a0R3ADboXIh8943rxJhX-5" edge="1">
          <mxGeometry relative="1" as="geometry" />
        </mxCell>
        <mxCell id="a0R3ADboXIh8943rxJhX-4" value="&lt;span style=&quot;font-size: 20px&quot;&gt;메뉴 주문&lt;/span&gt;" style="rounded=1;whiteSpace=wrap;html=1;absoluteArcSize=1;arcSize=14;strokeWidth=2;fontStyle=1" parent="HeQPxUuO_kXtwu4ibuIX-1" vertex="1">
          <mxGeometry x="40" y="485" width="240" height="40" as="geometry" />
        </mxCell>
        <mxCell id="a0R3ADboXIh8943rxJhX-24" value="" style="edgeStyle=orthogonalEdgeStyle;rounded=0;orthogonalLoop=1;jettySize=auto;html=1;startArrow=oval;startFill=0;fontStyle=1" parent="HeQPxUuO_kXtwu4ibuIX-1" source="a0R3ADboXIh8943rxJhX-5" target="a0R3ADboXIh8943rxJhX-8" edge="1">
          <mxGeometry relative="1" as="geometry" />
        </mxCell>
        <mxCell id="a0R3ADboXIh8943rxJhX-5" value="&lt;span style=&quot;font-size: 20px&quot;&gt;배달/주문정보 조회&lt;/span&gt;" style="rounded=1;whiteSpace=wrap;html=1;absoluteArcSize=1;arcSize=14;strokeWidth=2;fontStyle=1" parent="HeQPxUuO_kXtwu4ibuIX-1" vertex="1">
          <mxGeometry x="40" y="550" width="240" height="40" as="geometry" />
        </mxCell>
        <mxCell id="a0R3ADboXIh8943rxJhX-17" value="" style="edgeStyle=orthogonalEdgeStyle;rounded=0;orthogonalLoop=1;jettySize=auto;html=1;startArrow=oval;startFill=0;entryX=1;entryY=0.5;entryDx=0;entryDy=0;fontStyle=1" parent="HeQPxUuO_kXtwu4ibuIX-1" source="a0R3ADboXIh8943rxJhX-8" target="a0R3ADboXIh8943rxJhX-5" edge="1">
          <mxGeometry relative="1" as="geometry">
            <mxPoint x="320" y="560" as="targetPoint" />
            <Array as="points">
              <mxPoint x="320" y="675" />
              <mxPoint x="320" y="570" />
            </Array>
          </mxGeometry>
        </mxCell>
        <mxCell id="a0R3ADboXIh8943rxJhX-25" value="" style="edgeStyle=orthogonalEdgeStyle;rounded=0;orthogonalLoop=1;jettySize=auto;html=1;startArrow=oval;startFill=0;fontStyle=1" parent="HeQPxUuO_kXtwu4ibuIX-1" source="a0R3ADboXIh8943rxJhX-8" edge="1">
          <mxGeometry relative="1" as="geometry">
            <mxPoint x="160" y="780" as="targetPoint" />
          </mxGeometry>
        </mxCell>
        <mxCell id="a0R3ADboXIh8943rxJhX-8" value="&lt;font style=&quot;font-size: 20px&quot;&gt;배달완료?&lt;/font&gt;" style="html=1;whiteSpace=wrap;aspect=fixed;shape=isoRectangle;fontStyle=1" parent="HeQPxUuO_kXtwu4ibuIX-1" vertex="1">
          <mxGeometry x="68.34000000000003" y="620" width="183.33" height="110" as="geometry" />
        </mxCell>
        <mxCell id="a0R3ADboXIh8943rxJhX-18" value="&lt;font style=&quot;font-size: 16px&quot;&gt;NO&lt;/font&gt;" style="text;html=1;strokeColor=none;fillColor=none;align=center;verticalAlign=middle;whiteSpace=wrap;rounded=0;fontStyle=1" parent="HeQPxUuO_kXtwu4ibuIX-1" vertex="1">
          <mxGeometry x="270" y="650" width="40" height="20" as="geometry" />
        </mxCell>
        <mxCell id="a0R3ADboXIh8943rxJhX-21" value="&lt;span style=&quot;font-size: 16px&quot;&gt;YES&lt;/span&gt;" style="text;html=1;strokeColor=none;fillColor=none;align=center;verticalAlign=middle;whiteSpace=wrap;rounded=0;fontStyle=1" parent="HeQPxUuO_kXtwu4ibuIX-1" vertex="1">
          <mxGeometry x="120" y="740" width="40" height="20" as="geometry" />
        </mxCell>
        <mxCell id="a0R3ADboXIh8943rxJhX-32" value="" style="edgeStyle=orthogonalEdgeStyle;rounded=0;orthogonalLoop=1;jettySize=auto;html=1;startArrow=oval;startFill=0;fontStyle=1" parent="HeQPxUuO_kXtwu4ibuIX-1" source="a0R3ADboXIh8943rxJhX-30" target="a0R3ADboXIh8943rxJhX-31" edge="1">
          <mxGeometry relative="1" as="geometry" />
        </mxCell>
        <mxCell id="a0R3ADboXIh8943rxJhX-30" value="&lt;span style=&quot;font-size: 20px&quot;&gt;계정이 있습니까?&lt;/span&gt;" style="html=1;whiteSpace=wrap;aspect=fixed;shape=isoRectangle;fontStyle=1" parent="HeQPxUuO_kXtwu4ibuIX-1" vertex="1">
          <mxGeometry x="68.34000000000003" y="780" width="183.33" height="110" as="geometry" />
        </mxCell>
        <mxCell id="a0R3ADboXIh8943rxJhX-31" value="&lt;span style=&quot;font-size: 20px&quot;&gt;리뷰등록&lt;/span&gt;" style="rounded=1;whiteSpace=wrap;html=1;absoluteArcSize=1;arcSize=14;strokeWidth=2;fontStyle=1" parent="HeQPxUuO_kXtwu4ibuIX-1" vertex="1">
          <mxGeometry x="40" y="940" width="240" height="40" as="geometry" />
        </mxCell>
        <mxCell id="a0R3ADboXIh8943rxJhX-33" value="&lt;span style=&quot;font-size: 16px&quot;&gt;YES&lt;/span&gt;" style="text;html=1;strokeColor=none;fillColor=none;align=center;verticalAlign=middle;whiteSpace=wrap;rounded=0;fontStyle=1" parent="HeQPxUuO_kXtwu4ibuIX-1" vertex="1">
          <mxGeometry x="120" y="900" width="40" height="20" as="geometry" />
        </mxCell>
        <mxCell id="a0R3ADboXIh8943rxJhX-34" value="&lt;font style=&quot;font-size: 20px&quot;&gt;사용자 사업자 플로우&lt;/font&gt;" style="text;html=1;strokeColor=none;fillColor=none;align=center;verticalAlign=middle;whiteSpace=wrap;rounded=0;fontStyle=1" parent="HeQPxUuO_kXtwu4ibuIX-1" vertex="1">
          <mxGeometry x="360" y="280" width="240" height="40" as="geometry" />
        </mxCell>
        <mxCell id="a0R3ADboXIh8943rxJhX-40" value="&lt;font style=&quot;font-size: 20px&quot;&gt;시작&lt;/font&gt;" style="strokeWidth=2;html=1;shape=mxgraph.flowchart.terminator;whiteSpace=wrap;fontStyle=1" parent="HeQPxUuO_kXtwu4ibuIX-1" vertex="1">
          <mxGeometry x="414.5" y="340" width="91" height="40" as="geometry" />
        </mxCell>
        <mxCell id="a0R3ADboXIh8943rxJhX-48" value="" style="edgeStyle=orthogonalEdgeStyle;rounded=0;orthogonalLoop=1;jettySize=auto;html=1;startArrow=oval;startFill=0;fontStyle=1" parent="HeQPxUuO_kXtwu4ibuIX-1" source="a0R3ADboXIh8943rxJhX-40" target="a0R3ADboXIh8943rxJhX-47" edge="1">
          <mxGeometry relative="1" as="geometry">
            <mxPoint x="460" y="450" as="sourcePoint" />
          </mxGeometry>
        </mxCell>
        <mxCell id="a0R3ADboXIh8943rxJhX-50" value="" style="edgeStyle=orthogonalEdgeStyle;rounded=0;orthogonalLoop=1;jettySize=auto;html=1;startArrow=oval;startFill=0;fontStyle=1" parent="HeQPxUuO_kXtwu4ibuIX-1" source="a0R3ADboXIh8943rxJhX-47" target="a0R3ADboXIh8943rxJhX-49" edge="1">
          <mxGeometry relative="1" as="geometry" />
        </mxCell>
        <mxCell id="a0R3ADboXIh8943rxJhX-56" value="" style="edgeStyle=orthogonalEdgeStyle;rounded=0;orthogonalLoop=1;jettySize=auto;html=1;startArrow=oval;startFill=0;fontStyle=1" parent="HeQPxUuO_kXtwu4ibuIX-1" source="a0R3ADboXIh8943rxJhX-47" target="a0R3ADboXIh8943rxJhX-55" edge="1">
          <mxGeometry relative="1" as="geometry" />
        </mxCell>
        <mxCell id="a0R3ADboXIh8943rxJhX-47" value="&lt;span style=&quot;font-size: 20px&quot;&gt;사업자번호등록?&lt;/span&gt;" style="html=1;whiteSpace=wrap;aspect=fixed;shape=isoRectangle;fontStyle=1" parent="HeQPxUuO_kXtwu4ibuIX-1" vertex="1">
          <mxGeometry x="360" y="420" width="200" height="120" as="geometry" />
        </mxCell>
        <mxCell id="a0R3ADboXIh8943rxJhX-63" value="" style="edgeStyle=orthogonalEdgeStyle;rounded=0;orthogonalLoop=1;jettySize=auto;html=1;startArrow=oval;startFill=0;fontStyle=1" parent="HeQPxUuO_kXtwu4ibuIX-1" source="a0R3ADboXIh8943rxJhX-49" target="a0R3ADboXIh8943rxJhX-62" edge="1">
          <mxGeometry relative="1" as="geometry" />
        </mxCell>
        <mxCell id="a0R3ADboXIh8943rxJhX-49" value="&lt;span style=&quot;font-size: 19px&quot;&gt;myPage&lt;/span&gt;" style="whiteSpace=wrap;html=1;fontStyle=1" parent="HeQPxUuO_kXtwu4ibuIX-1" vertex="1">
          <mxGeometry x="640" y="460" width="160" height="40" as="geometry" />
        </mxCell>
        <mxCell id="a0R3ADboXIh8943rxJhX-51" value="&lt;font style=&quot;font-size: 16px&quot;&gt;NO&lt;/font&gt;" style="text;html=1;strokeColor=none;fillColor=none;align=center;verticalAlign=middle;whiteSpace=wrap;rounded=0;fontStyle=1" parent="HeQPxUuO_kXtwu4ibuIX-1" vertex="1">
          <mxGeometry x="580" y="460" width="40" height="20" as="geometry" />
        </mxCell>
        <mxCell id="a0R3ADboXIh8943rxJhX-72" value="" style="edgeStyle=orthogonalEdgeStyle;rounded=0;orthogonalLoop=1;jettySize=auto;html=1;startArrow=oval;startFill=0;fontStyle=1" parent="HeQPxUuO_kXtwu4ibuIX-1" source="a0R3ADboXIh8943rxJhX-55" target="a0R3ADboXIh8943rxJhX-71" edge="1">
          <mxGeometry relative="1" as="geometry" />
        </mxCell>
        <mxCell id="a0R3ADboXIh8943rxJhX-55" value="&lt;font style=&quot;font-size: 20px&quot;&gt;사장님페이지&lt;/font&gt;" style="whiteSpace=wrap;html=1;fontStyle=1" parent="HeQPxUuO_kXtwu4ibuIX-1" vertex="1">
          <mxGeometry x="360" y="700" width="200" height="40" as="geometry" />
        </mxCell>
        <mxCell id="a0R3ADboXIh8943rxJhX-57" value="&lt;span style=&quot;font-size: 16px&quot;&gt;YES&lt;/span&gt;" style="text;html=1;strokeColor=none;fillColor=none;align=center;verticalAlign=middle;whiteSpace=wrap;rounded=0;fontStyle=1" parent="HeQPxUuO_kXtwu4ibuIX-1" vertex="1">
          <mxGeometry x="410" y="550" width="40" height="20" as="geometry" />
        </mxCell>
        <mxCell id="a0R3ADboXIh8943rxJhX-58" style="edgeStyle=orthogonalEdgeStyle;rounded=0;orthogonalLoop=1;jettySize=auto;html=1;exitX=0.5;exitY=1;exitDx=0;exitDy=0;startArrow=oval;startFill=0;fontStyle=1" parent="HeQPxUuO_kXtwu4ibuIX-1" source="a0R3ADboXIh8943rxJhX-51" target="a0R3ADboXIh8943rxJhX-51" edge="1">
          <mxGeometry relative="1" as="geometry" />
        </mxCell>
        <mxCell id="a0R3ADboXIh8943rxJhX-65" value="" style="edgeStyle=orthogonalEdgeStyle;rounded=0;orthogonalLoop=1;jettySize=auto;html=1;startArrow=oval;startFill=0;fontStyle=1" parent="HeQPxUuO_kXtwu4ibuIX-1" source="a0R3ADboXIh8943rxJhX-62" target="a0R3ADboXIh8943rxJhX-64" edge="1">
          <mxGeometry relative="1" as="geometry" />
        </mxCell>
        <mxCell id="a0R3ADboXIh8943rxJhX-62" value="&lt;font style=&quot;font-size: 20px&quot;&gt;업점문의&lt;/font&gt;" style="whiteSpace=wrap;html=1;fontStyle=1" parent="HeQPxUuO_kXtwu4ibuIX-1" vertex="1">
          <mxGeometry x="640" y="540" width="160" height="40" as="geometry" />
        </mxCell>
        <mxCell id="a0R3ADboXIh8943rxJhX-70" value="" style="edgeStyle=orthogonalEdgeStyle;rounded=0;orthogonalLoop=1;jettySize=auto;html=1;startArrow=oval;startFill=0;fontStyle=1" parent="HeQPxUuO_kXtwu4ibuIX-1" source="a0R3ADboXIh8943rxJhX-64" target="a0R3ADboXIh8943rxJhX-69" edge="1">
          <mxGeometry relative="1" as="geometry" />
        </mxCell>
        <mxCell id="a0R3ADboXIh8943rxJhX-64" value="&lt;font style=&quot;font-size: 20px&quot;&gt;온라인 입점신청&lt;/font&gt;" style="whiteSpace=wrap;html=1;fontStyle=1" parent="HeQPxUuO_kXtwu4ibuIX-1" vertex="1">
          <mxGeometry x="640" y="620" width="160" height="40" as="geometry" />
        </mxCell>
        <mxCell id="a0R3ADboXIh8943rxJhX-73" value="" style="edgeStyle=orthogonalEdgeStyle;rounded=0;orthogonalLoop=1;jettySize=auto;html=1;startArrow=oval;startFill=0;fontStyle=1" parent="HeQPxUuO_kXtwu4ibuIX-1" source="a0R3ADboXIh8943rxJhX-69" target="a0R3ADboXIh8943rxJhX-55" edge="1">
          <mxGeometry relative="1" as="geometry" />
        </mxCell>
        <mxCell id="a0R3ADboXIh8943rxJhX-69" value="&lt;font style=&quot;font-size: 20px&quot;&gt;사업자 번호 등록&lt;/font&gt;" style="whiteSpace=wrap;html=1;fontStyle=1" parent="HeQPxUuO_kXtwu4ibuIX-1" vertex="1">
          <mxGeometry x="640" y="700" width="160" height="40" as="geometry" />
        </mxCell>
        <mxCell id="a0R3ADboXIh8943rxJhX-71" value="&lt;font style=&quot;font-size: 20px&quot;&gt;사업장/주문 관리&lt;/font&gt;" style="whiteSpace=wrap;html=1;fontStyle=1" parent="HeQPxUuO_kXtwu4ibuIX-1" vertex="1">
          <mxGeometry x="360" y="780" width="200" height="40" as="geometry" />
        </mxCell>
        <mxCell id="0ciblB_WzZCxfT6p-ThB-0" style="edgeStyle=orthogonalEdgeStyle;rounded=0;orthogonalLoop=1;jettySize=auto;html=1;exitX=1;exitY=0.5;exitDx=0;exitDy=0;entryX=1;entryY=0.25;entryDx=0;entryDy=0;fontSize=20;startArrow=none;startFill=0;endArrow=none;endFill=0;" edge="1" parent="HeQPxUuO_kXtwu4ibuIX-1" source="a0R3ADboXIh8943rxJhX-71" target="a0R3ADboXIh8943rxJhX-71">
          <mxGeometry relative="1" as="geometry" />
        </mxCell>
      </root>
    </mxGraphModel>
  </diagram>
  <diagram id="Jkk0n4qTqLHIujoX_6fq" name="페이지구성도">
    <mxGraphModel dx="2031" dy="1134" grid="1" gridSize="10" guides="1" tooltips="1" connect="1" arrows="1" fold="1" page="1" pageScale="1" pageWidth="827" pageHeight="1169" math="0" shadow="0">
      <root>
        <mxCell id="7F-9kvUGxut5OJEwGNPi-0" />
        <mxCell id="7F-9kvUGxut5OJEwGNPi-1" parent="7F-9kvUGxut5OJEwGNPi-0" />
        <mxCell id="7F-9kvUGxut5OJEwGNPi-2" value="&lt;font style=&quot;font-size: 40px&quot;&gt;요기요 toy project 시스템 페이지 구성도&amp;nbsp;&lt;/font&gt;" style="rounded=0;whiteSpace=wrap;html=1;" vertex="1" parent="7F-9kvUGxut5OJEwGNPi-1">
          <mxGeometry x="80" y="40" width="800" height="50" as="geometry" />
        </mxCell>
        <mxCell id="7F-9kvUGxut5OJEwGNPi-3" value="&lt;font style=&quot;font-size: 20px;&quot;&gt;일반회원가입&lt;/font&gt;" style="rounded=0;whiteSpace=wrap;html=1;strokeWidth=1;fillColor=#f5f5f5;strokeColor=#666666;fontColor=#333333;fontStyle=1;fontSize=20;" vertex="1" parent="7F-9kvUGxut5OJEwGNPi-1">
          <mxGeometry x="90" y="410" width="240" height="30" as="geometry" />
        </mxCell>
        <mxCell id="7F-9kvUGxut5OJEwGNPi-4" style="edgeStyle=orthogonalEdgeStyle;rounded=0;orthogonalLoop=1;jettySize=auto;html=1;endArrow=none;endFill=0;fontStyle=1;fontSize=20;" edge="1" parent="7F-9kvUGxut5OJEwGNPi-1" source="7F-9kvUGxut5OJEwGNPi-6">
          <mxGeometry relative="1" as="geometry">
            <mxPoint x="330" y="430" as="targetPoint" />
          </mxGeometry>
        </mxCell>
        <mxCell id="7F-9kvUGxut5OJEwGNPi-5" style="edgeStyle=orthogonalEdgeStyle;rounded=0;orthogonalLoop=1;jettySize=auto;html=1;entryX=0.5;entryY=0;entryDx=0;entryDy=0;endArrow=none;endFill=0;fontStyle=1;fontSize=20;" edge="1" parent="7F-9kvUGxut5OJEwGNPi-1" source="7F-9kvUGxut5OJEwGNPi-6" target="7F-9kvUGxut5OJEwGNPi-15">
          <mxGeometry relative="1" as="geometry" />
        </mxCell>
        <mxCell id="7F-9kvUGxut5OJEwGNPi-6" value="&lt;font style=&quot;font-size: 20px&quot;&gt;&lt;b&gt;회원가입&lt;/b&gt;&lt;/font&gt;" style="ellipse;whiteSpace=wrap;html=1;strokeWidth=1;fillColor=#f5f5f5;strokeColor=#666666;fontColor=#333333;fontSize=20;" vertex="1" parent="7F-9kvUGxut5OJEwGNPi-1">
          <mxGeometry x="420" y="370" width="260" height="120" as="geometry" />
        </mxCell>
        <mxCell id="7F-9kvUGxut5OJEwGNPi-7" style="edgeStyle=orthogonalEdgeStyle;rounded=0;orthogonalLoop=1;jettySize=auto;html=1;endArrow=none;endFill=0;fontStyle=1;fontSize=20;" edge="1" parent="7F-9kvUGxut5OJEwGNPi-1" source="7F-9kvUGxut5OJEwGNPi-8">
          <mxGeometry relative="1" as="geometry">
            <mxPoint x="370" y="430" as="targetPoint" />
          </mxGeometry>
        </mxCell>
        <mxCell id="7F-9kvUGxut5OJEwGNPi-8" value="&lt;font style=&quot;font-size: 20px;&quot;&gt;사장님회원가입&lt;/font&gt;" style="rounded=0;whiteSpace=wrap;html=1;strokeWidth=1;fillColor=#f5f5f5;strokeColor=#666666;fontColor=#333333;fontStyle=1;fontSize=20;" vertex="1" parent="7F-9kvUGxut5OJEwGNPi-1">
          <mxGeometry x="90" y="450" width="240" height="30" as="geometry" />
        </mxCell>
        <mxCell id="7F-9kvUGxut5OJEwGNPi-11" style="edgeStyle=orthogonalEdgeStyle;rounded=0;orthogonalLoop=1;jettySize=auto;html=1;entryX=1;entryY=0.5;entryDx=0;entryDy=0;endArrow=none;endFill=0;fontStyle=1;fontSize=20;" edge="1" parent="7F-9kvUGxut5OJEwGNPi-1" source="7F-9kvUGxut5OJEwGNPi-15" target="7F-9kvUGxut5OJEwGNPi-33">
          <mxGeometry relative="1" as="geometry" />
        </mxCell>
        <mxCell id="7F-9kvUGxut5OJEwGNPi-12" style="edgeStyle=orthogonalEdgeStyle;rounded=0;orthogonalLoop=1;jettySize=auto;html=1;entryX=1;entryY=0.5;entryDx=0;entryDy=0;endArrow=none;endFill=0;fontStyle=1;fontSize=20;" edge="1" parent="7F-9kvUGxut5OJEwGNPi-1" source="7F-9kvUGxut5OJEwGNPi-15" target="7F-9kvUGxut5OJEwGNPi-34">
          <mxGeometry relative="1" as="geometry">
            <Array as="points">
              <mxPoint x="370" y="580" />
              <mxPoint x="370" y="625" />
            </Array>
          </mxGeometry>
        </mxCell>
        <mxCell id="7F-9kvUGxut5OJEwGNPi-13" style="edgeStyle=orthogonalEdgeStyle;rounded=0;orthogonalLoop=1;jettySize=auto;html=1;entryX=0;entryY=0.5;entryDx=0;entryDy=0;endArrow=none;endFill=0;fontStyle=1;fontSize=20;" edge="1" parent="7F-9kvUGxut5OJEwGNPi-1" source="7F-9kvUGxut5OJEwGNPi-15" target="7F-9kvUGxut5OJEwGNPi-36">
          <mxGeometry relative="1" as="geometry" />
        </mxCell>
        <mxCell id="7F-9kvUGxut5OJEwGNPi-15" value="&lt;span style=&quot;font-size: 20px;&quot;&gt;myPage&lt;/span&gt;" style="rounded=0;whiteSpace=wrap;html=1;strokeWidth=1;fillColor=#dae8fc;strokeColor=#6c8ebf;fontStyle=1;fontSize=20;" vertex="1" parent="7F-9kvUGxut5OJEwGNPi-1">
          <mxGeometry x="450" y="550" width="200" height="60" as="geometry" />
        </mxCell>
        <mxCell id="7F-9kvUGxut5OJEwGNPi-16" style="edgeStyle=orthogonalEdgeStyle;rounded=0;orthogonalLoop=1;jettySize=auto;html=1;entryX=0;entryY=0.5;entryDx=0;entryDy=0;startArrow=none;startFill=0;endArrow=none;endFill=0;strokeWidth=1;fontStyle=1;fontSize=20;" edge="1" parent="7F-9kvUGxut5OJEwGNPi-1" source="7F-9kvUGxut5OJEwGNPi-17" target="7F-9kvUGxut5OJEwGNPi-18">
          <mxGeometry relative="1" as="geometry">
            <Array as="points">
              <mxPoint x="410" y="690" />
              <mxPoint x="410" y="765" />
            </Array>
          </mxGeometry>
        </mxCell>
        <mxCell id="7F-9kvUGxut5OJEwGNPi-17" value="&lt;span style=&quot;font-size: 20px;&quot;&gt;사장님 페이지&lt;/span&gt;" style="rounded=0;whiteSpace=wrap;html=1;strokeWidth=1;fillColor=#f8cecc;strokeColor=#b85450;fontStyle=1;fontSize=20;" vertex="1" parent="7F-9kvUGxut5OJEwGNPi-1">
          <mxGeometry x="450" y="660" width="400" height="60" as="geometry" />
        </mxCell>
        <mxCell id="7F-9kvUGxut5OJEwGNPi-18" value="&lt;span style=&quot;font-size: 20px;&quot;&gt;주문내역목록&lt;/span&gt;" style="rounded=0;whiteSpace=wrap;html=1;strokeWidth=1;fillColor=#f8cecc;strokeColor=#b85450;fontStyle=1;fontSize=20;" vertex="1" parent="7F-9kvUGxut5OJEwGNPi-1">
          <mxGeometry x="456" y="750" width="220" height="30" as="geometry" />
        </mxCell>
        <mxCell id="7F-9kvUGxut5OJEwGNPi-19" style="edgeStyle=orthogonalEdgeStyle;rounded=0;orthogonalLoop=1;jettySize=auto;html=1;startArrow=none;startFill=0;endArrow=none;endFill=0;strokeWidth=1;fontStyle=1;fontSize=20;" edge="1" parent="7F-9kvUGxut5OJEwGNPi-1">
          <mxGeometry relative="1" as="geometry">
            <mxPoint x="410" y="760" as="targetPoint" />
            <mxPoint x="456" y="815" as="sourcePoint" />
          </mxGeometry>
        </mxCell>
        <mxCell id="7F-9kvUGxut5OJEwGNPi-20" value="&lt;span style=&quot;font-size: 20px;&quot;&gt;메뉴등록및 사업장관리&lt;/span&gt;" style="rounded=0;whiteSpace=wrap;html=1;strokeWidth=1;fillColor=#f8cecc;strokeColor=#b85450;fontStyle=1;fontSize=20;" vertex="1" parent="7F-9kvUGxut5OJEwGNPi-1">
          <mxGeometry x="456" y="800" width="220" height="30" as="geometry" />
        </mxCell>
        <mxCell id="7F-9kvUGxut5OJEwGNPi-21" value="&lt;span style=&quot;font-size: 20px;&quot;&gt;음식점정보 상세페이지&lt;/span&gt;" style="rounded=0;whiteSpace=wrap;html=1;strokeWidth=1;fillColor=#f8cecc;strokeColor=#b85450;fontStyle=1;fontSize=20;" vertex="1" parent="7F-9kvUGxut5OJEwGNPi-1">
          <mxGeometry x="456" y="850" width="220" height="30" as="geometry" />
        </mxCell>
        <mxCell id="7F-9kvUGxut5OJEwGNPi-22" value="&lt;span style=&quot;font-size: 20px;&quot;&gt;배달지역관리&lt;/span&gt;" style="rounded=0;whiteSpace=wrap;html=1;strokeWidth=1;fillColor=#f8cecc;strokeColor=#b85450;fontStyle=1;fontSize=20;" vertex="1" parent="7F-9kvUGxut5OJEwGNPi-1">
          <mxGeometry x="456" y="900" width="220" height="30" as="geometry" />
        </mxCell>
        <mxCell id="7F-9kvUGxut5OJEwGNPi-23" value="&lt;span style=&quot;font-size: 20px;&quot;&gt;회원정보수정&lt;/span&gt;" style="rounded=0;whiteSpace=wrap;html=1;strokeWidth=1;fillColor=#f8cecc;strokeColor=#b85450;fontStyle=1;fontSize=20;" vertex="1" parent="7F-9kvUGxut5OJEwGNPi-1">
          <mxGeometry x="456" y="950" width="220" height="30" as="geometry" />
        </mxCell>
        <mxCell id="7F-9kvUGxut5OJEwGNPi-24" value="&lt;span style=&quot;font-size: 20px;&quot;&gt;회원주문내역&lt;/span&gt;" style="rounded=0;whiteSpace=wrap;html=1;strokeWidth=1;fillColor=#f8cecc;strokeColor=#b85450;fontStyle=1;fontSize=20;" vertex="1" parent="7F-9kvUGxut5OJEwGNPi-1">
          <mxGeometry x="456" y="1000" width="220" height="30" as="geometry" />
        </mxCell>
        <mxCell id="7F-9kvUGxut5OJEwGNPi-25" value="&lt;span style=&quot;font-size: 20px;&quot;&gt;리뷰통계&lt;/span&gt;" style="rounded=0;whiteSpace=wrap;html=1;strokeWidth=1;fillColor=#f8cecc;strokeColor=#b85450;fontStyle=1;fontSize=20;" vertex="1" parent="7F-9kvUGxut5OJEwGNPi-1">
          <mxGeometry x="456" y="1050" width="220" height="30" as="geometry" />
        </mxCell>
        <mxCell id="7F-9kvUGxut5OJEwGNPi-26" value="&lt;span style=&quot;font-size: 20px;&quot;&gt;매출통계&lt;/span&gt;" style="rounded=0;whiteSpace=wrap;html=1;strokeWidth=1;fillColor=#f8cecc;strokeColor=#b85450;fontStyle=1;fontSize=20;" vertex="1" parent="7F-9kvUGxut5OJEwGNPi-1">
          <mxGeometry x="456" y="1100" width="220" height="30" as="geometry" />
        </mxCell>
        <mxCell id="7F-9kvUGxut5OJEwGNPi-27" style="edgeStyle=orthogonalEdgeStyle;rounded=0;orthogonalLoop=1;jettySize=auto;html=1;startArrow=none;startFill=0;endArrow=none;endFill=0;strokeWidth=1;fontStyle=1;fontSize=20;" edge="1" parent="7F-9kvUGxut5OJEwGNPi-1">
          <mxGeometry relative="1" as="geometry">
            <mxPoint x="410" y="810" as="targetPoint" />
            <mxPoint x="456" y="865" as="sourcePoint" />
          </mxGeometry>
        </mxCell>
        <mxCell id="7F-9kvUGxut5OJEwGNPi-28" style="edgeStyle=orthogonalEdgeStyle;rounded=0;orthogonalLoop=1;jettySize=auto;html=1;startArrow=none;startFill=0;endArrow=none;endFill=0;strokeWidth=1;fontStyle=1;fontSize=20;" edge="1" parent="7F-9kvUGxut5OJEwGNPi-1">
          <mxGeometry relative="1" as="geometry">
            <mxPoint x="410" y="860" as="targetPoint" />
            <mxPoint x="456" y="915" as="sourcePoint" />
          </mxGeometry>
        </mxCell>
        <mxCell id="7F-9kvUGxut5OJEwGNPi-29" style="edgeStyle=orthogonalEdgeStyle;rounded=0;orthogonalLoop=1;jettySize=auto;html=1;startArrow=none;startFill=0;endArrow=none;endFill=0;strokeWidth=1;fontStyle=1;fontSize=20;" edge="1" parent="7F-9kvUGxut5OJEwGNPi-1">
          <mxGeometry relative="1" as="geometry">
            <mxPoint x="410" y="910" as="targetPoint" />
            <mxPoint x="456" y="965" as="sourcePoint" />
          </mxGeometry>
        </mxCell>
        <mxCell id="7F-9kvUGxut5OJEwGNPi-30" style="edgeStyle=orthogonalEdgeStyle;rounded=0;orthogonalLoop=1;jettySize=auto;html=1;startArrow=none;startFill=0;endArrow=none;endFill=0;strokeWidth=1;fontStyle=1;fontSize=20;" edge="1" parent="7F-9kvUGxut5OJEwGNPi-1">
          <mxGeometry relative="1" as="geometry">
            <mxPoint x="410" y="960" as="targetPoint" />
            <mxPoint x="456" y="1015" as="sourcePoint" />
          </mxGeometry>
        </mxCell>
        <mxCell id="7F-9kvUGxut5OJEwGNPi-31" style="edgeStyle=orthogonalEdgeStyle;rounded=0;orthogonalLoop=1;jettySize=auto;html=1;startArrow=none;startFill=0;endArrow=none;endFill=0;strokeWidth=1;fontStyle=1;fontSize=20;" edge="1" parent="7F-9kvUGxut5OJEwGNPi-1">
          <mxGeometry relative="1" as="geometry">
            <mxPoint x="410" y="1014" as="targetPoint" />
            <mxPoint x="456" y="1069" as="sourcePoint" />
          </mxGeometry>
        </mxCell>
        <mxCell id="7F-9kvUGxut5OJEwGNPi-32" style="edgeStyle=orthogonalEdgeStyle;rounded=0;orthogonalLoop=1;jettySize=auto;html=1;startArrow=none;startFill=0;endArrow=none;endFill=0;strokeWidth=1;fontStyle=1;fontSize=20;" edge="1" parent="7F-9kvUGxut5OJEwGNPi-1">
          <mxGeometry relative="1" as="geometry">
            <mxPoint x="410" y="1060" as="targetPoint" />
            <mxPoint x="456" y="1115" as="sourcePoint" />
            <Array as="points">
              <mxPoint x="410" y="1115" />
            </Array>
          </mxGeometry>
        </mxCell>
        <mxCell id="7F-9kvUGxut5OJEwGNPi-33" value="&lt;span style=&quot;font-size: 20px;&quot;&gt;회원정보수정&lt;/span&gt;" style="rounded=0;whiteSpace=wrap;html=1;strokeWidth=1;fillColor=#dae8fc;strokeColor=#6c8ebf;fontStyle=1;fontSize=20;" vertex="1" parent="7F-9kvUGxut5OJEwGNPi-1">
          <mxGeometry x="90" y="565" width="240" height="30" as="geometry" />
        </mxCell>
        <mxCell id="7F-9kvUGxut5OJEwGNPi-77" style="edgeStyle=orthogonalEdgeStyle;rounded=0;orthogonalLoop=1;jettySize=auto;html=1;entryX=0.471;entryY=0.033;entryDx=0;entryDy=0;entryPerimeter=0;fontSize=20;startArrow=none;startFill=0;endArrow=none;endFill=0;" edge="1" parent="7F-9kvUGxut5OJEwGNPi-1" source="7F-9kvUGxut5OJEwGNPi-34" target="7F-9kvUGxut5OJEwGNPi-76">
          <mxGeometry relative="1" as="geometry" />
        </mxCell>
        <mxCell id="7F-9kvUGxut5OJEwGNPi-34" value="&lt;span style=&quot;font-size: 20px;&quot;&gt;회원주문내역&lt;/span&gt;" style="rounded=0;whiteSpace=wrap;html=1;strokeWidth=1;fillColor=#dae8fc;strokeColor=#6c8ebf;fontStyle=1;fontSize=20;" vertex="1" parent="7F-9kvUGxut5OJEwGNPi-1">
          <mxGeometry x="90" y="610" width="240" height="30" as="geometry" />
        </mxCell>
        <mxCell id="7F-9kvUGxut5OJEwGNPi-35" value="&lt;font style=&quot;font-size: 12px&quot;&gt;사업자번호등록시&lt;/font&gt;" style="text;html=1;strokeColor=none;fillColor=none;align=center;verticalAlign=middle;whiteSpace=wrap;rounded=0;fontStyle=1;fontSize=20;" vertex="1" parent="7F-9kvUGxut5OJEwGNPi-1">
          <mxGeometry x="530" y="630" width="120" height="20" as="geometry" />
        </mxCell>
        <mxCell id="7F-9kvUGxut5OJEwGNPi-71" value="" style="edgeStyle=orthogonalEdgeStyle;rounded=0;orthogonalLoop=1;jettySize=auto;html=1;fontSize=20;startArrow=none;startFill=0;endArrow=none;endFill=0;" edge="1" parent="7F-9kvUGxut5OJEwGNPi-1" source="7F-9kvUGxut5OJEwGNPi-36" target="7F-9kvUGxut5OJEwGNPi-17">
          <mxGeometry relative="1" as="geometry" />
        </mxCell>
        <mxCell id="7F-9kvUGxut5OJEwGNPi-36" value="&lt;font style=&quot;font-size: 20px;&quot;&gt;사업자번호등록&lt;/font&gt;" style="rounded=0;whiteSpace=wrap;html=1;fillColor=#f5f5f5;strokeColor=#666666;fontColor=#333333;fontStyle=1;fontSize=20;" vertex="1" parent="7F-9kvUGxut5OJEwGNPi-1">
          <mxGeometry x="730" y="550" width="120" height="60" as="geometry" />
        </mxCell>
        <mxCell id="7F-9kvUGxut5OJEwGNPi-37" style="edgeStyle=orthogonalEdgeStyle;rounded=0;orthogonalLoop=1;jettySize=auto;html=1;entryX=0.5;entryY=0;entryDx=0;entryDy=0;endArrow=none;endFill=0;fontSize=20;" edge="1" parent="7F-9kvUGxut5OJEwGNPi-1" source="7F-9kvUGxut5OJEwGNPi-39" target="7F-9kvUGxut5OJEwGNPi-6">
          <mxGeometry relative="1" as="geometry" />
        </mxCell>
        <mxCell id="7F-9kvUGxut5OJEwGNPi-57" style="edgeStyle=orthogonalEdgeStyle;rounded=0;orthogonalLoop=1;jettySize=auto;html=1;entryX=1;entryY=0.5;entryDx=0;entryDy=0;fontSize=20;endArrow=none;endFill=0;" edge="1" parent="7F-9kvUGxut5OJEwGNPi-1" target="7F-9kvUGxut5OJEwGNPi-41">
          <mxGeometry relative="1" as="geometry">
            <mxPoint x="431" y="165" as="sourcePoint" />
          </mxGeometry>
        </mxCell>
        <mxCell id="7F-9kvUGxut5OJEwGNPi-58" style="edgeStyle=orthogonalEdgeStyle;rounded=0;orthogonalLoop=1;jettySize=auto;html=1;entryX=1;entryY=0.5;entryDx=0;entryDy=0;fontSize=20;endArrow=none;endFill=0;" edge="1" parent="7F-9kvUGxut5OJEwGNPi-1" target="7F-9kvUGxut5OJEwGNPi-42">
          <mxGeometry relative="1" as="geometry">
            <mxPoint x="431" y="205" as="sourcePoint" />
          </mxGeometry>
        </mxCell>
        <mxCell id="7F-9kvUGxut5OJEwGNPi-66" value="" style="edgeStyle=orthogonalEdgeStyle;rounded=0;orthogonalLoop=1;jettySize=auto;html=1;fontSize=20;startArrow=none;startFill=0;endArrow=none;endFill=0;" edge="1" parent="7F-9kvUGxut5OJEwGNPi-1" source="7F-9kvUGxut5OJEwGNPi-39" target="7F-9kvUGxut5OJEwGNPi-51">
          <mxGeometry relative="1" as="geometry">
            <Array as="points">
              <mxPoint x="410" y="285" />
              <mxPoint x="410" y="285" />
            </Array>
          </mxGeometry>
        </mxCell>
        <mxCell id="7F-9kvUGxut5OJEwGNPi-39" value="&lt;font style=&quot;font-size: 20px;&quot;&gt;&lt;b style=&quot;font-size: 20px;&quot;&gt;메인페이지&lt;/b&gt;&lt;/font&gt;" style="rounded=0;whiteSpace=wrap;html=1;fillColor=#f5f5f5;strokeColor=#666666;fontColor=#333333;fontSize=20;" vertex="1" parent="7F-9kvUGxut5OJEwGNPi-1">
          <mxGeometry x="430" y="140" width="240" height="190" as="geometry" />
        </mxCell>
        <mxCell id="7F-9kvUGxut5OJEwGNPi-41" value="&lt;font style=&quot;font-size: 20px;&quot;&gt;&lt;b style=&quot;font-size: 20px;&quot;&gt;요기요등록음식점 조회&lt;/b&gt;&lt;/font&gt;" style="rounded=0;whiteSpace=wrap;html=1;fillColor=#f5f5f5;strokeColor=#666666;fontColor=#333333;fontSize=20;" vertex="1" parent="7F-9kvUGxut5OJEwGNPi-1">
          <mxGeometry x="90" y="150" width="280" height="30" as="geometry" />
        </mxCell>
        <mxCell id="7F-9kvUGxut5OJEwGNPi-42" value="&lt;font style=&quot;font-size: 20px;&quot;&gt;&lt;b style=&quot;font-size: 20px;&quot;&gt;음식점상세정보조회&lt;/b&gt;&lt;/font&gt;" style="rounded=0;whiteSpace=wrap;html=1;fillColor=#f5f5f5;strokeColor=#666666;fontColor=#333333;fontSize=20;" vertex="1" parent="7F-9kvUGxut5OJEwGNPi-1">
          <mxGeometry x="90" y="190" width="280" height="30" as="geometry" />
        </mxCell>
        <mxCell id="7F-9kvUGxut5OJEwGNPi-59" value="" style="edgeStyle=orthogonalEdgeStyle;rounded=0;orthogonalLoop=1;jettySize=auto;html=1;fontSize=20;endArrow=none;endFill=0;entryX=0.004;entryY=0.553;entryDx=0;entryDy=0;entryPerimeter=0;" edge="1" parent="7F-9kvUGxut5OJEwGNPi-1" source="7F-9kvUGxut5OJEwGNPi-43" target="7F-9kvUGxut5OJEwGNPi-39">
          <mxGeometry relative="1" as="geometry" />
        </mxCell>
        <mxCell id="7F-9kvUGxut5OJEwGNPi-43" value="&lt;font style=&quot;font-size: 20px;&quot;&gt;&lt;b style=&quot;font-size: 20px;&quot;&gt;업점문의&lt;/b&gt;&lt;/font&gt;" style="rounded=0;whiteSpace=wrap;html=1;strokeWidth=1;fillColor=#f5f5f5;strokeColor=#666666;fontColor=#333333;align=center;fontSize=20;" vertex="1" parent="7F-9kvUGxut5OJEwGNPi-1">
          <mxGeometry x="90" y="230" width="280" height="30" as="geometry" />
        </mxCell>
        <mxCell id="7F-9kvUGxut5OJEwGNPi-51" value="&lt;span style=&quot;font-size: 20px;&quot;&gt;&lt;b style=&quot;font-size: 20px;&quot;&gt;주문정보 조회&lt;/b&gt;&lt;/span&gt;" style="rounded=0;whiteSpace=wrap;html=1;strokeWidth=1;fillColor=#f5f5f5;strokeColor=#666666;fontColor=#333333;align=center;fontSize=20;" vertex="1" parent="7F-9kvUGxut5OJEwGNPi-1">
          <mxGeometry x="90" y="270" width="280" height="30" as="geometry" />
        </mxCell>
        <mxCell id="7F-9kvUGxut5OJEwGNPi-79" value="" style="edgeStyle=orthogonalEdgeStyle;rounded=0;orthogonalLoop=1;jettySize=auto;html=1;fontSize=20;startArrow=none;startFill=0;endArrow=none;endFill=0;entryX=1.004;entryY=0.132;entryDx=0;entryDy=0;entryPerimeter=0;" edge="1" parent="7F-9kvUGxut5OJEwGNPi-1" source="7F-9kvUGxut5OJEwGNPi-72" target="7F-9kvUGxut5OJEwGNPi-39">
          <mxGeometry relative="1" as="geometry" />
        </mxCell>
        <mxCell id="7F-9kvUGxut5OJEwGNPi-80" value="" style="edgeStyle=orthogonalEdgeStyle;rounded=0;orthogonalLoop=1;jettySize=auto;html=1;fontSize=20;startArrow=none;startFill=0;endArrow=none;endFill=0;" edge="1" parent="7F-9kvUGxut5OJEwGNPi-1" source="7F-9kvUGxut5OJEwGNPi-72" target="7F-9kvUGxut5OJEwGNPi-74">
          <mxGeometry relative="1" as="geometry" />
        </mxCell>
        <mxCell id="7F-9kvUGxut5OJEwGNPi-72" value="주문표" style="rounded=0;whiteSpace=wrap;html=1;fontSize=20;fillColor=#f5f5f5;strokeColor=#666666;fontColor=#333333;fontStyle=1" vertex="1" parent="7F-9kvUGxut5OJEwGNPi-1">
          <mxGeometry x="730" y="145" width="120" height="40" as="geometry" />
        </mxCell>
        <mxCell id="7F-9kvUGxut5OJEwGNPi-74" value="결제" style="rounded=0;whiteSpace=wrap;html=1;fontSize=20;fillColor=#f5f5f5;strokeColor=#666666;fontColor=#333333;fontStyle=1" vertex="1" parent="7F-9kvUGxut5OJEwGNPi-1">
          <mxGeometry x="730" y="220" width="120" height="40" as="geometry" />
        </mxCell>
        <mxCell id="7F-9kvUGxut5OJEwGNPi-76" value="&lt;span style=&quot;font-size: 20px&quot;&gt;리뷰등록&lt;/span&gt;" style="rounded=0;whiteSpace=wrap;html=1;strokeWidth=1;fillColor=#dae8fc;strokeColor=#6c8ebf;fontStyle=1;fontSize=20;" vertex="1" parent="7F-9kvUGxut5OJEwGNPi-1">
          <mxGeometry x="90" y="660" width="240" height="40" as="geometry" />
        </mxCell>
      </root>
    </mxGraphModel>
  </diagram>
  <diagram id="kIL54QEFJbwVBnj2n7Iw" name="Page-1">
    <mxGraphModel dx="1422" dy="794" grid="1" gridSize="10" guides="1" tooltips="1" connect="1" arrows="1" fold="1" page="1" pageScale="1" pageWidth="827" pageHeight="1169" math="0" shadow="0">
      <root>
        <mxCell id="0" />
        <mxCell id="1" parent="0" />
        <mxCell id="3XlGnCdxEz07_Yxzjv9R-21" value="&lt;font style=&quot;font-size: 50px&quot;&gt;요기요 toy project 시스템&amp;nbsp;&lt;/font&gt;" style="rounded=0;whiteSpace=wrap;html=1;" parent="1" vertex="1">
          <mxGeometry x="80" y="40" width="2290" height="90" as="geometry" />
        </mxCell>
        <mxCell id="3XlGnCdxEz07_Yxzjv9R-83" value="" style="edgeStyle=orthogonalEdgeStyle;rounded=0;orthogonalLoop=1;jettySize=auto;html=1;startArrow=oval;startFill=1;endArrow=oval;endFill=1;strokeWidth=1;entryX=0;entryY=0.25;entryDx=0;entryDy=0;" parent="1" source="3XlGnCdxEz07_Yxzjv9R-22" target="3XlGnCdxEz07_Yxzjv9R-50" edge="1">
          <mxGeometry relative="1" as="geometry">
            <mxPoint x="730" y="390" as="targetPoint" />
          </mxGeometry>
        </mxCell>
        <mxCell id="3XlGnCdxEz07_Yxzjv9R-22" value="&lt;font style=&quot;font-size: 20px&quot;&gt;일반회원가입&lt;/font&gt;" style="rounded=0;whiteSpace=wrap;html=1;strokeWidth=1;fillColor=#f5f5f5;strokeColor=#666666;fontColor=#333333;" parent="1" vertex="1">
          <mxGeometry x="430" y="370" width="220" height="40" as="geometry" />
        </mxCell>
        <mxCell id="3XlGnCdxEz07_Yxzjv9R-23" value="&lt;font style=&quot;font-size: 20px&quot;&gt;회원가입&lt;/font&gt;" style="ellipse;whiteSpace=wrap;html=1;strokeWidth=1;fillColor=#f5f5f5;strokeColor=#666666;fontColor=#333333;" parent="1" vertex="1">
          <mxGeometry x="1040" y="180" width="190" height="100" as="geometry" />
        </mxCell>
        <mxCell id="3XlGnCdxEz07_Yxzjv9R-78" style="edgeStyle=orthogonalEdgeStyle;rounded=0;orthogonalLoop=1;jettySize=auto;html=1;startArrow=oval;startFill=1;endArrow=oval;endFill=1;strokeWidth=1;entryX=1;entryY=0.25;entryDx=0;entryDy=0;" parent="1" source="3XlGnCdxEz07_Yxzjv9R-24" target="3XlGnCdxEz07_Yxzjv9R-50" edge="1">
          <mxGeometry relative="1" as="geometry">
            <mxPoint x="1390" y="610" as="targetPoint" />
          </mxGeometry>
        </mxCell>
        <mxCell id="3XlGnCdxEz07_Yxzjv9R-79" value="" style="edgeStyle=orthogonalEdgeStyle;rounded=0;orthogonalLoop=1;jettySize=auto;html=1;startArrow=oval;startFill=1;endArrow=oval;endFill=1;strokeWidth=1;" parent="1" source="3XlGnCdxEz07_Yxzjv9R-24" target="3XlGnCdxEz07_Yxzjv9R-28" edge="1">
          <mxGeometry relative="1" as="geometry" />
        </mxCell>
        <mxCell id="3XlGnCdxEz07_Yxzjv9R-24" value="&lt;font style=&quot;font-size: 20px&quot;&gt;사장님회원가입&lt;/font&gt;" style="rounded=0;whiteSpace=wrap;html=1;strokeWidth=1;fillColor=#f5f5f5;strokeColor=#666666;fontColor=#333333;" parent="1" vertex="1">
          <mxGeometry x="1600" y="370" width="190" height="40" as="geometry" />
        </mxCell>
        <mxCell id="3XlGnCdxEz07_Yxzjv9R-25" value="" style="endArrow=classic;html=1;entryX=0.5;entryY=0;entryDx=0;entryDy=0;strokeWidth=1;" parent="1" source="3XlGnCdxEz07_Yxzjv9R-23" target="3XlGnCdxEz07_Yxzjv9R-22" edge="1">
          <mxGeometry width="50" height="50" relative="1" as="geometry">
            <mxPoint x="521" y="311" as="sourcePoint" />
            <mxPoint x="520" y="350" as="targetPoint" />
          </mxGeometry>
        </mxCell>
        <mxCell id="3XlGnCdxEz07_Yxzjv9R-26" value="" style="endArrow=classic;html=1;entryX=0.5;entryY=0;entryDx=0;entryDy=0;strokeWidth=1;" parent="1" target="3XlGnCdxEz07_Yxzjv9R-24" edge="1">
          <mxGeometry width="50" height="50" relative="1" as="geometry">
            <mxPoint x="1230" y="240" as="sourcePoint" />
            <mxPoint x="1680" y="370" as="targetPoint" />
          </mxGeometry>
        </mxCell>
        <mxCell id="3XlGnCdxEz07_Yxzjv9R-28" value="&lt;font style=&quot;font-size: 20px&quot;&gt;업점문의&lt;/font&gt;" style="rounded=0;whiteSpace=wrap;html=1;strokeWidth=1;fillColor=#f5f5f5;strokeColor=#666666;fontColor=#333333;" parent="1" vertex="1">
          <mxGeometry x="1600" y="450" width="190" height="40" as="geometry" />
        </mxCell>
        <mxCell id="3XlGnCdxEz07_Yxzjv9R-34" value="&lt;font style=&quot;font-size: 15px&quot;&gt;사용자는 회원가입페이지로 접근하여 회원가입을진행합니다.&lt;br&gt;회원가입 진행시 일반회원가입/사장님회원가입을 선택합니다.&lt;br&gt;(일반회원가입시 role=0, 사장님회원가입시 role=1 을 부여하여 해당사용자의 권한을 설정합니다.)&lt;/font&gt;" style="shape=note;whiteSpace=wrap;html=1;backgroundOutline=1;darkOpacity=0.05;size=14;align=left;strokeWidth=1;" parent="1" vertex="1">
          <mxGeometry x="980" y="310" width="310" height="150" as="geometry" />
        </mxCell>
        <mxCell id="3XlGnCdxEz07_Yxzjv9R-48" value="" style="endArrow=none;dashed=1;html=1;strokeWidth=1;entryX=1;entryY=0.5;entryDx=0;entryDy=0;exitX=0.004;exitY=0.697;exitDx=0;exitDy=0;exitPerimeter=0;" parent="1" source="3XlGnCdxEz07_Yxzjv9R-29" target="3XlGnCdxEz07_Yxzjv9R-28" edge="1">
          <mxGeometry width="50" height="50" relative="1" as="geometry">
            <mxPoint x="2040" y="390" as="sourcePoint" />
            <mxPoint x="1909" y="410" as="targetPoint" />
          </mxGeometry>
        </mxCell>
        <mxCell id="3XlGnCdxEz07_Yxzjv9R-49" value="" style="endArrow=none;dashed=1;html=1;dashPattern=1 3;strokeWidth=2;exitX=0.5;exitY=0;exitDx=0;exitDy=0;exitPerimeter=0;entryX=0.5;entryY=1;entryDx=0;entryDy=0;" parent="1" source="3XlGnCdxEz07_Yxzjv9R-34" target="3XlGnCdxEz07_Yxzjv9R-23" edge="1">
          <mxGeometry width="50" height="50" relative="1" as="geometry">
            <mxPoint x="1090" y="330" as="sourcePoint" />
            <mxPoint x="1140" y="280" as="targetPoint" />
          </mxGeometry>
        </mxCell>
        <mxCell id="nNb5bF7bujml4WTCAgH6-1" style="edgeStyle=orthogonalEdgeStyle;rounded=0;orthogonalLoop=1;jettySize=auto;html=1;" edge="1" parent="1" source="3XlGnCdxEz07_Yxzjv9R-50" target="nNb5bF7bujml4WTCAgH6-2">
          <mxGeometry relative="1" as="geometry">
            <mxPoint x="1480" y="630" as="targetPoint" />
          </mxGeometry>
        </mxCell>
        <mxCell id="3XlGnCdxEz07_Yxzjv9R-50" value="&lt;span style=&quot;font-size: 20px&quot;&gt;myPage&lt;/span&gt;" style="rounded=0;whiteSpace=wrap;html=1;strokeWidth=1;fillColor=#dae8fc;strokeColor=#6c8ebf;" parent="1" vertex="1">
          <mxGeometry x="1060" y="600" width="190" height="60" as="geometry" />
        </mxCell>
        <mxCell id="3XlGnCdxEz07_Yxzjv9R-56" value="&lt;span style=&quot;font-size: 15px&quot;&gt;회원가입과 온라인 입점신청을 마친후 myPage에 접근하여 로그인한 ID에 입점신청시 사용한 사업자 번호를 등록합니다.&lt;br&gt;사업자번호를 등록하면 기존의 myPage에서 사장님페이지로 ui가 변경됩니다&lt;br&gt;&lt;/span&gt;" style="shape=note;whiteSpace=wrap;html=1;backgroundOutline=1;darkOpacity=0.05;size=14;align=left;strokeWidth=1;" parent="1" vertex="1">
          <mxGeometry x="1690" y="570" width="239" height="140" as="geometry" />
        </mxCell>
        <mxCell id="3XlGnCdxEz07_Yxzjv9R-70" style="edgeStyle=orthogonalEdgeStyle;rounded=0;orthogonalLoop=1;jettySize=auto;html=1;entryX=0;entryY=0.5;entryDx=0;entryDy=0;startArrow=oval;startFill=1;endArrow=oval;endFill=1;strokeWidth=1;" parent="1" source="3XlGnCdxEz07_Yxzjv9R-60" target="3XlGnCdxEz07_Yxzjv9R-62" edge="1">
          <mxGeometry relative="1" as="geometry">
            <Array as="points">
              <mxPoint x="1460" y="790" />
              <mxPoint x="1460" y="865" />
            </Array>
          </mxGeometry>
        </mxCell>
        <mxCell id="3XlGnCdxEz07_Yxzjv9R-81" style="edgeStyle=orthogonalEdgeStyle;rounded=0;orthogonalLoop=1;jettySize=auto;html=1;exitX=0;exitY=0.25;exitDx=0;exitDy=0;entryX=0.789;entryY=1.033;entryDx=0;entryDy=0;entryPerimeter=0;startArrow=oval;startFill=1;endArrow=oval;endFill=1;strokeWidth=1;" parent="1" source="3XlGnCdxEz07_Yxzjv9R-60" target="3XlGnCdxEz07_Yxzjv9R-50" edge="1">
          <mxGeometry relative="1" as="geometry" />
        </mxCell>
        <mxCell id="3XlGnCdxEz07_Yxzjv9R-60" value="&lt;span style=&quot;font-size: 20px&quot;&gt;사장님 페이지&lt;/span&gt;" style="rounded=0;whiteSpace=wrap;html=1;strokeWidth=1;fillColor=#f8cecc;strokeColor=#b85450;" parent="1" vertex="1">
          <mxGeometry x="1480" y="760" width="460" height="60" as="geometry" />
        </mxCell>
        <mxCell id="3XlGnCdxEz07_Yxzjv9R-62" value="&lt;span style=&quot;font-size: 20px&quot;&gt;주문내역목록&lt;/span&gt;" style="rounded=0;whiteSpace=wrap;html=1;strokeWidth=1;fillColor=#f8cecc;strokeColor=#b85450;" parent="1" vertex="1">
          <mxGeometry x="1506" y="850" width="220" height="30" as="geometry" />
        </mxCell>
        <mxCell id="3XlGnCdxEz07_Yxzjv9R-71" style="edgeStyle=orthogonalEdgeStyle;rounded=0;orthogonalLoop=1;jettySize=auto;html=1;startArrow=oval;startFill=1;endArrow=none;endFill=0;strokeWidth=1;" parent="1" edge="1">
          <mxGeometry relative="1" as="geometry">
            <mxPoint x="1460" y="860" as="targetPoint" />
            <mxPoint x="1506" y="915" as="sourcePoint" />
          </mxGeometry>
        </mxCell>
        <mxCell id="3XlGnCdxEz07_Yxzjv9R-63" value="&lt;span style=&quot;font-size: 20px&quot;&gt;메뉴등록및 사업장관리&lt;/span&gt;" style="rounded=0;whiteSpace=wrap;html=1;strokeWidth=1;fillColor=#f8cecc;strokeColor=#b85450;" parent="1" vertex="1">
          <mxGeometry x="1506" y="900" width="220" height="30" as="geometry" />
        </mxCell>
        <mxCell id="3XlGnCdxEz07_Yxzjv9R-64" value="&lt;span style=&quot;font-size: 20px&quot;&gt;음식점정보 상세페이지&lt;/span&gt;" style="rounded=0;whiteSpace=wrap;html=1;strokeWidth=1;fillColor=#f8cecc;strokeColor=#b85450;" parent="1" vertex="1">
          <mxGeometry x="1506" y="950" width="220" height="30" as="geometry" />
        </mxCell>
        <mxCell id="3XlGnCdxEz07_Yxzjv9R-65" value="&lt;span style=&quot;font-size: 20px&quot;&gt;배달지역관리&lt;/span&gt;" style="rounded=0;whiteSpace=wrap;html=1;strokeWidth=1;fillColor=#f8cecc;strokeColor=#b85450;" parent="1" vertex="1">
          <mxGeometry x="1506" y="1000" width="220" height="30" as="geometry" />
        </mxCell>
        <mxCell id="3XlGnCdxEz07_Yxzjv9R-66" value="&lt;span style=&quot;font-size: 20px&quot;&gt;회원정보수정&lt;/span&gt;" style="rounded=0;whiteSpace=wrap;html=1;strokeWidth=1;fillColor=#f8cecc;strokeColor=#b85450;" parent="1" vertex="1">
          <mxGeometry x="1506" y="1050" width="220" height="30" as="geometry" />
        </mxCell>
        <mxCell id="3XlGnCdxEz07_Yxzjv9R-67" value="&lt;span style=&quot;font-size: 20px&quot;&gt;회원주문내역&lt;/span&gt;" style="rounded=0;whiteSpace=wrap;html=1;strokeWidth=1;fillColor=#f8cecc;strokeColor=#b85450;" parent="1" vertex="1">
          <mxGeometry x="1506" y="1100" width="220" height="30" as="geometry" />
        </mxCell>
        <mxCell id="3XlGnCdxEz07_Yxzjv9R-68" value="&lt;span style=&quot;font-size: 20px&quot;&gt;리뷰통계&lt;/span&gt;" style="rounded=0;whiteSpace=wrap;html=1;strokeWidth=1;fillColor=#f8cecc;strokeColor=#b85450;" parent="1" vertex="1">
          <mxGeometry x="1506" y="1150" width="220" height="30" as="geometry" />
        </mxCell>
        <mxCell id="3XlGnCdxEz07_Yxzjv9R-69" value="&lt;span style=&quot;font-size: 20px&quot;&gt;매출통계&lt;/span&gt;" style="rounded=0;whiteSpace=wrap;html=1;strokeWidth=1;fillColor=#f8cecc;strokeColor=#b85450;" parent="1" vertex="1">
          <mxGeometry x="1506" y="1200" width="220" height="30" as="geometry" />
        </mxCell>
        <mxCell id="3XlGnCdxEz07_Yxzjv9R-72" style="edgeStyle=orthogonalEdgeStyle;rounded=0;orthogonalLoop=1;jettySize=auto;html=1;startArrow=oval;startFill=1;endArrow=none;endFill=0;strokeWidth=1;" parent="1" edge="1">
          <mxGeometry relative="1" as="geometry">
            <mxPoint x="1460" y="910" as="targetPoint" />
            <mxPoint x="1506" y="965" as="sourcePoint" />
          </mxGeometry>
        </mxCell>
        <mxCell id="3XlGnCdxEz07_Yxzjv9R-73" style="edgeStyle=orthogonalEdgeStyle;rounded=0;orthogonalLoop=1;jettySize=auto;html=1;startArrow=oval;startFill=1;endArrow=none;endFill=0;strokeWidth=1;" parent="1" edge="1">
          <mxGeometry relative="1" as="geometry">
            <mxPoint x="1460" y="960" as="targetPoint" />
            <mxPoint x="1506" y="1015" as="sourcePoint" />
          </mxGeometry>
        </mxCell>
        <mxCell id="3XlGnCdxEz07_Yxzjv9R-74" style="edgeStyle=orthogonalEdgeStyle;rounded=0;orthogonalLoop=1;jettySize=auto;html=1;startArrow=oval;startFill=1;endArrow=none;endFill=0;strokeWidth=1;" parent="1" edge="1">
          <mxGeometry relative="1" as="geometry">
            <mxPoint x="1460" y="1010" as="targetPoint" />
            <mxPoint x="1506" y="1065" as="sourcePoint" />
          </mxGeometry>
        </mxCell>
        <mxCell id="3XlGnCdxEz07_Yxzjv9R-75" style="edgeStyle=orthogonalEdgeStyle;rounded=0;orthogonalLoop=1;jettySize=auto;html=1;startArrow=oval;startFill=1;endArrow=none;endFill=0;strokeWidth=1;" parent="1" edge="1">
          <mxGeometry relative="1" as="geometry">
            <mxPoint x="1460" y="1060" as="targetPoint" />
            <mxPoint x="1506" y="1115" as="sourcePoint" />
          </mxGeometry>
        </mxCell>
        <mxCell id="3XlGnCdxEz07_Yxzjv9R-76" style="edgeStyle=orthogonalEdgeStyle;rounded=0;orthogonalLoop=1;jettySize=auto;html=1;startArrow=oval;startFill=1;endArrow=none;endFill=0;strokeWidth=1;" parent="1" edge="1">
          <mxGeometry relative="1" as="geometry">
            <mxPoint x="1460" y="1114" as="targetPoint" />
            <mxPoint x="1506" y="1169" as="sourcePoint" />
          </mxGeometry>
        </mxCell>
        <mxCell id="3XlGnCdxEz07_Yxzjv9R-77" style="edgeStyle=orthogonalEdgeStyle;rounded=0;orthogonalLoop=1;jettySize=auto;html=1;startArrow=oval;startFill=1;endArrow=none;endFill=0;strokeWidth=1;" parent="1" edge="1">
          <mxGeometry relative="1" as="geometry">
            <mxPoint x="1460" y="1160" as="targetPoint" />
            <mxPoint x="1506" y="1215" as="sourcePoint" />
            <Array as="points">
              <mxPoint x="1460" y="1215" />
            </Array>
          </mxGeometry>
        </mxCell>
        <mxCell id="3XlGnCdxEz07_Yxzjv9R-29" value="&lt;font style=&quot;font-size: 15px&quot;&gt;사용자는 업점문의페이지로 접근 하여 사업자번호로 사업자정보와 음식점정보를 등록합니다.&lt;br&gt;(사업자번호와 음식점 정보는 1:1 관계로규정합니다)&lt;/font&gt;" style="shape=note;whiteSpace=wrap;html=1;backgroundOutline=1;darkOpacity=0.05;size=14;align=left;strokeWidth=1;" parent="1" vertex="1">
          <mxGeometry x="1850" y="400" width="239" height="99" as="geometry" />
        </mxCell>
        <mxCell id="3XlGnCdxEz07_Yxzjv9R-87" style="edgeStyle=orthogonalEdgeStyle;rounded=0;orthogonalLoop=1;jettySize=auto;html=1;startArrow=oval;startFill=1;endArrow=oval;endFill=1;strokeWidth=1;entryX=0.105;entryY=1.033;entryDx=0;entryDy=0;entryPerimeter=0;" parent="1" source="3XlGnCdxEz07_Yxzjv9R-85" target="3XlGnCdxEz07_Yxzjv9R-50" edge="1">
          <mxGeometry relative="1" as="geometry">
            <mxPoint x="1040" y="735" as="targetPoint" />
          </mxGeometry>
        </mxCell>
        <mxCell id="3XlGnCdxEz07_Yxzjv9R-85" value="&lt;span style=&quot;font-size: 20px&quot;&gt;회원정보수정&lt;/span&gt;" style="rounded=0;whiteSpace=wrap;html=1;strokeWidth=1;fillColor=#dae8fc;strokeColor=#6c8ebf;" parent="1" vertex="1">
          <mxGeometry x="710" y="720" width="220" height="30" as="geometry" />
        </mxCell>
        <mxCell id="3XlGnCdxEz07_Yxzjv9R-88" style="edgeStyle=orthogonalEdgeStyle;rounded=0;orthogonalLoop=1;jettySize=auto;html=1;startArrow=oval;startFill=1;endArrow=oval;endFill=1;strokeWidth=1;entryX=0.25;entryY=1;entryDx=0;entryDy=0;" parent="1" source="3XlGnCdxEz07_Yxzjv9R-86" target="3XlGnCdxEz07_Yxzjv9R-50" edge="1">
          <mxGeometry relative="1" as="geometry">
            <mxPoint x="1090" y="785" as="targetPoint" />
          </mxGeometry>
        </mxCell>
        <mxCell id="3XlGnCdxEz07_Yxzjv9R-86" value="&lt;span style=&quot;font-size: 20px&quot;&gt;회원주문내역&lt;/span&gt;" style="rounded=0;whiteSpace=wrap;html=1;strokeWidth=1;fillColor=#dae8fc;strokeColor=#6c8ebf;" parent="1" vertex="1">
          <mxGeometry x="710" y="770" width="220" height="30" as="geometry" />
        </mxCell>
        <mxCell id="zHT3fBQk5tU62bcz6Fid-4" value="사업자번호등록시" style="text;html=1;strokeColor=none;fillColor=none;align=center;verticalAlign=middle;whiteSpace=wrap;rounded=0;" parent="1" vertex="1">
          <mxGeometry x="1280" y="750" width="120" height="20" as="geometry" />
        </mxCell>
        <mxCell id="nNb5bF7bujml4WTCAgH6-2" value="&lt;font style=&quot;font-size: 15px&quot;&gt;사업자번호등록&lt;/font&gt;" style="rounded=0;whiteSpace=wrap;html=1;" vertex="1" parent="1">
          <mxGeometry x="1480" y="600" width="120" height="60" as="geometry" />
        </mxCell>
        <mxCell id="nNb5bF7bujml4WTCAgH6-4" value="" style="endArrow=none;dashed=1;html=1;strokeWidth=1;entryX=1;entryY=0.5;entryDx=0;entryDy=0;exitX=-0.004;exitY=0.414;exitDx=0;exitDy=0;exitPerimeter=0;" edge="1" parent="1">
          <mxGeometry width="50" height="50" relative="1" as="geometry">
            <mxPoint x="1689.0439999999999" y="630.96" as="sourcePoint" />
            <mxPoint x="1600" y="633" as="targetPoint" />
          </mxGeometry>
        </mxCell>
      </root>
    </mxGraphModel>
  </diagram>
</mxfile>
